<svg xmlns="http://www.w3.org/2000/svg" xmlns:xlink="http://www.w3.org/1999/xlink" id="terminal" width="1016" baseProfile="full" version="1.1" viewBox="0 0 1016 563"><defs><termtosvg:template_settings xmlns:termtosvg="https://github.com/nbedos/termtosvg"><termtosvg:screen_geometry columns="127" rows="33"/><termtosvg:animation type="css"/></termtosvg:template_settings><style id="generated-style" type="text/css">@keyframes roll{0%{transform:translateY(0)}3.026%{transform:translateY(-578px)}10.057%{transform:translateY(-1156px)}12.992%{transform:translateY(-1734px)}14.166%{transform:translateY(-2312px)}15.197%{transform:translateY(-2890px)}17.036%{transform:translateY(-3468px)}28.476%{transform:translateY(-4046px)}48.252%{transform:translateY(-4624px)}48.291%{transform:translateY(-5202px)}48.904%{transform:translateY(-5780px)}55.961%{transform:translateY(-6358px)}55.974%{transform:translateY(-6936px)}57.957%{transform:translateY(-7514px)}57.983%{transform:translateY(-8092px)}61.91%{transform:translateY(-8670px)}61.949%{transform:translateY(-9248px)}62.471%{transform:translateY(-9826px)}62.51%{transform:translateY(-10404px)}66.475%{transform:translateY(-10982px)}66.514%{transform:translateY(-11560px)}67.049%{transform:translateY(-12138px)}67.115%{transform:translateY(-12716px)}67.675%{transform:translateY(-13294px)}67.728%{transform:translateY(-13872px)}86.955%{transform:translateY(-14450px)}}#screen{font-family:&apos;DejaVu Sans Mono&apos;,monospace;font-style:normal;font-size:14px}text{dominant-baseline:text-before-edge;white-space:pre}:root{--animation-duration:7666ms}#screen_view{animation-duration:7666ms;animation-iteration-count:infinite;animation-name:roll;animation-timing-function:steps(1,end);animation-fill-mode:forwards}</style><style id="user-style" type="text/css">.foreground{fill:#ccc}.background{fill:#0c0c0c}.color2{fill:#13a10e}.color4{fill:#0037da}.color5{fill:#881798}.color6{fill:#3a96dd}.color14{fill:#61d6d6}.color15{fill:#f2f2f2}</style></defs><svg id="screen" width="1016" height="561" preserveAspectRatio="xMidYMin slice" viewBox="0 0 1016 561"><rect width="100%" height="100%" x="0" y="0" class="background"/><defs><g id="g2"><text x="0" class="foreground" textLength="144">nikhil@purpleterm</text><text x="144" class="color14" font-weight="bold" textLength="8">~</text><text x="152" class="color15" font-weight="bold" textLength="24">%</text></g><g id="g3"><text x="0" class="foreground" textLength="144">nikhil@purpleterm</text><text x="144" class="color14" font-weight="bold" textLength="8">~</text><text x="152" class="color15" font-weight="bold" textLength="24">%</text><text x="176" class="foreground" textLength="8">k</text></g><g id="g4"><text x="0" class="foreground" textLength="144">nikhil@purpleterm</text><text x="144" class="color14" font-weight="bold" textLength="8">~</text><text x="152" class="color15" font-weight="bold" textLength="24">%</text><text x="176" class="foreground" textLength="16">ki</text></g><g id="g5"><text x="0" class="foreground" textLength="144">nikhil@purpleterm</text><text x="144" class="color14" font-weight="bold" textLength="8">~</text><text x="152" class="color15" font-weight="bold" textLength="24">%</text><text x="176" class="foreground" textLength="24">kin</text></g><g id="g6"><text x="0" class="foreground" textLength="144">nikhil@purpleterm</text><text x="144" class="color14" font-weight="bold" textLength="8">~</text><text x="152" class="color15" font-weight="bold" textLength="24">%</text><text x="176" class="foreground" textLength="32">kind</text></g><g id="g7"><text x="0" class="foreground" textLength="144">nikhil@purpleterm</text><text x="144" class="color14" font-weight="bold" textLength="8">~</text><text x="152" class="color15" font-weight="bold" textLength="24">%</text><text x="176" class="foreground" textLength="40">kindl</text></g><g id="g8"><text x="0" class="foreground" textLength="144">nikhil@purpleterm</text><text x="144" class="color14" font-weight="bold" textLength="8">~</text><text x="152" class="color15" font-weight="bold" textLength="24">%</text><text x="176" class="foreground" textLength="840">kindle-send download &quot;http://paulgraham.com/read.html&quot; &quot;http://paulgraham.com/getideas.html&quot; &quot;http://paul</text></g><g id="g9"><text x="0" class="foreground" textLength="168">graham.com/want.html&quot;</text></g><g id="g10"><text x="0" class="foreground" textLength="1016">graham.com/want.html&quot;</text></g><g id="g11"><text x="0" class="color2" textLength="160">Loaded configuration</text></g><g id="g12"><text x="0" class="color2" textLength="480">Fetched http://paulgraham.com/read.html --&gt; The Need to Read</text></g><g id="g13"><text x="0" class="color5" textLength="648">No title supplied, inheriting title of first readable article : The Need to Read</text></g><g id="g14"><text x="0" class="color6" textLength="296">Embedding images in The Need to Read</text></g><g id="g15"><text x="0" class="color14" font-weight="bold" textLength="144">Downloading Images</text></g><g id="g16"><text x="0" class="color2" textLength="584">Downloaded image https://s.yimg.com/aah/paulgraham/the-need-to-read-1.gif</text></g><g id="g17"><text x="0" class="color2" textLength="952">Setting img src from https://s.yimg.com/aah/paulgraham/the-need-to-read-1.gif to ../images/img-9090730095287726101.png</text></g><g id="g18"><text x="0" class="color2" textLength="128">Added 1 articles</text></g><g id="g19"><text x="0" class="color2" textLength="544">Fetched http://paulgraham.com/getideas.html --&gt; How to Get New Ideas</text></g><g id="g20"><text x="0" class="color5" textLength="680">No title supplied, inheriting title of first readable article : How to Get New Ideas</text></g><g id="g21"><text x="0" class="color6" textLength="328">Embedding images in How to Get New Ideas</text></g><g id="g22"><text x="0" class="color2" textLength="616">Downloaded image https://s.yimg.com/aah/paulgraham/how-to-get-new-ideas-1.gif</text></g><g id="g23"><text x="0" class="color2" textLength="976">Setting img src from https://s.yimg.com/aah/paulgraham/how-to-get-new-ideas-1.gif to ../images/img3175517244011387283.png</text></g><g id="g24"><text x="0" class="color2" textLength="544">Fetched http://paulgraham.com/want.html --&gt; What You (Want to)* Want</text></g><g id="g25"><text x="0" class="color5" textLength="712">No title supplied, inheriting title of first readable article : What You (Want to)* Want</text></g><g id="g26"><text x="0" class="color6" textLength="360">Embedding images in What You (Want to)* Want</text></g><g id="g27"><text x="0" class="color2" textLength="624">Downloaded image https://s.yimg.com/aah/paulgraham/what-you-want-to-want-1.gif</text></g><g id="g28"><text x="0" class="color2" textLength="992">Setting img src from https://s.yimg.com/aah/paulgraham/what-you-want-to-want-1.gif to ../images/img-2061640853277117926.png</text></g><g id="g29"><text x="0" class="color14" font-weight="bold" textLength="160">Downloaded 3 files :</text></g><g id="g30"><text x="0" class="color6" textLength="192">1. The Need to Read.epub</text></g><g id="g31"><text x="0" class="color6" textLength="224">2. How to Get New Ideas.epub</text></g><g id="g32"><text x="0" class="color6" textLength="256">3. What You (Want to)* Want.epub</text></g><g id="g33"><text x="0" class="foreground" textLength="144">nikhil@purpleterm</text><text x="144" class="color14" font-weight="bold" textLength="8">~</text><text x="152" class="color15" font-weight="bold" textLength="24">%</text></g></defs><g id="screen_view"><g><rect width="8" height="17" x="0" y="0" class="foreground"/><use y="0" xlink:href="#g1"/></g><g><rect width="136" height="17" x="0" y="578" class="color4"/><rect width="8" height="17" x="176" y="578" class="foreground"/><use y="578" xlink:href="#g2"/></g><g><rect width="136" height="17" x="0" y="1156" class="color4"/><rect width="8" height="17" x="184" y="1156" class="foreground"/><use y="1156" xlink:href="#g3"/></g><g><rect width="136" height="17" x="0" y="1734" class="color4"/><rect width="8" height="17" x="192" y="1734" class="foreground"/><use y="1734" xlink:href="#g4"/></g><g><rect width="136" height="17" x="0" y="2312" class="color4"/><rect width="8" height="17" x="200" y="2312" class="foreground"/><use y="2312" xlink:href="#g5"/></g><g><rect width="136" height="17" x="0" y="2890" class="color4"/><rect width="8" height="17" x="208" y="2890" class="foreground"/><use y="2890" xlink:href="#g6"/></g><g><rect width="136" height="17" x="0" y="3468" class="color4"/><rect width="8" height="17" x="216" y="3468" class="foreground"/><use y="3468" xlink:href="#g7"/></g><g><rect width="136" height="17" x="0" y="4046" class="color4"/><use y="4046" xlink:href="#g8"/><rect width="8" height="17" x="168" y="4063" class="foreground"/><use y="4063" xlink:href="#g9"/></g><g><rect width="136" height="17" x="0" y="4624" class="color4"/><use y="4624" xlink:href="#g8"/><rect width="8" height="17" x="168" y="4641" class="foreground"/><use y="4641" xlink:href="#g9"/></g><g><rect width="136" height="17" x="0" y="5202" class="color4"/><use y="5202" xlink:href="#g8"/><use y="5219" xlink:href="#g10"/><rect width="8" height="17" x="0" y="5236" class="foreground"/><use y="5236" xlink:href="#g1"/></g><g><rect width="136" height="17" x="0" y="5780" class="color4"/><use y="5780" xlink:href="#g8"/><use y="5797" xlink:href="#g10"/><use y="5814" xlink:href="#g11"/><rect width="8" height="17" x="0" y="5831" class="foreground"/><use y="5831" xlink:href="#g1"/></g><g><rect width="136" height="17" x="0" y="6358" class="color4"/><use y="6358" xlink:href="#g8"/><use y="6375" xlink:href="#g10"/><use y="6392" xlink:href="#g11"/><use y="6409" xlink:href="#g12"/><use y="6426" xlink:href="#g13"/><rect width="8" height="17" x="0" y="6443" class="foreground"/><use y="6443" xlink:href="#g1"/></g><g><rect width="136" height="17" x="0" y="6936" class="color4"/><use y="6936" xlink:href="#g8"/><use y="6953" xlink:href="#g10"/><use y="6970" xlink:href="#g11"/><use y="6987" xlink:href="#g12"/><use y="7004" xlink:href="#g13"/><use y="7021" xlink:href="#g14"/><use y="7038" xlink:href="#g15"/><rect width="8" height="17" x="0" y="7055" class="foreground"/><use y="7055" xlink:href="#g1"/></g><g><rect width="136" height="17" x="0" y="7514" class="color4"/><use y="7514" xlink:href="#g8"/><use y="7531" xlink:href="#g10"/><use y="7548" xlink:href="#g11"/><use y="7565" xlink:href="#g12"/><use y="7582" xlink:href="#g13"/><use y="7599" xlink:href="#g14"/><use y="7616" xlink:href="#g15"/><use y="7633" xlink:href="#g16"/><use y="7650" xlink:href="#g17"/><rect width="8" height="17" x="0" y="7667" class="foreground"/><use y="7667" xlink:href="#g1"/></g><g><rect width="136" height="17" x="0" y="8092" class="color4"/><use y="8092" xlink:href="#g8"/><use y="8109" xlink:href="#g10"/><use y="8126" xlink:href="#g11"/><use y="8143" xlink:href="#g12"/><use y="8160" xlink:href="#g13"/><use y="8177" xlink:href="#g14"/><use y="8194" xlink:href="#g15"/><use y="8211" xlink:href="#g16"/><use y="8228" xlink:href="#g17"/><use y="8245" xlink:href="#g18"/><rect width="8" height="17" x="0" y="8262" class="foreground"/><use y="8262" xlink:href="#g1"/></g><g><rect width="136" height="17" x="0" y="8670" class="color4"/><use y="8670" xlink:href="#g8"/><use y="8687" xlink:href="#g10"/><use y="8704" xlink:href="#g11"/><use y="8721" xlink:href="#g12"/><use y="8738" xlink:href="#g13"/><use y="8755" xlink:href="#g14"/><use y="8772" xlink:href="#g15"/><use y="8789" xlink:href="#g16"/><use y="8806" xlink:href="#g17"/><use y="8823" xlink:href="#g18"/><use y="8840" xlink:href="#g19"/><use y="8857" xlink:href="#g20"/><rect width="8" height="17" x="0" y="8874" class="foreground"/><use y="8874" xlink:href="#g1"/></g><g><rect width="136" height="17" x="0" y="9248" class="color4"/><use y="9248" xlink:href="#g8"/><use y="9265" xlink:href="#g10"/><use y="9282" xlink:href="#g11"/><use y="9299" xlink:href="#g12"/><use y="9316" xlink:href="#g13"/><use y="9333" xlink:href="#g14"/><use y="9350" xlink:href="#g15"/><use y="9367" xlink:href="#g16"/><use y="9384" xlink:href="#g17"/><use y="9401" xlink:href="#g18"/><use y="9418" xlink:href="#g19"/><use y="9435" xlink:href="#g20"/><use y="9452" xlink:href="#g21"/><use y="9469" xlink:href="#g15"/><rect width="8" height="17" x="0" y="9486" class="foreground"/><use y="9486" xlink:href="#g1"/></g><g><rect width="136" height="17" x="0" y="9826" class="color4"/><use y="9826" xlink:href="#g8"/><use y="9843" xlink:href="#g10"/><use y="9860" xlink:href="#g11"/><use y="9877" xlink:href="#g12"/><use y="9894" xlink:href="#g13"/><use y="9911" xlink:href="#g14"/><use y="9928" xlink:href="#g15"/><use y="9945" xlink:href="#g16"/><use y="9962" xlink:href="#g17"/><use y="9979" xlink:href="#g18"/><use y="9996" xlink:href="#g19"/><use y="10013" xlink:href="#g20"/><use y="10030" xlink:href="#g21"/><use y="10047" xlink:href="#g15"/><use y="10064" xlink:href="#g22"/><use y="10081" xlink:href="#g23"/><rect width="8" height="17" x="0" y="10098" class="foreground"/><use y="10098" xlink:href="#g1"/></g><g><rect width="136" height="17" x="0" y="10404" class="color4"/><use y="10404" xlink:href="#g8"/><use y="10421" xlink:href="#g10"/><use y="10438" xlink:href="#g11"/><use y="10455" xlink:href="#g12"/><use y="10472" xlink:href="#g13"/><use y="10489" xlink:href="#g14"/><use y="10506" xlink:href="#g15"/><use y="10523" xlink:href="#g16"/><use y="10540" xlink:href="#g17"/><use y="10557" xlink:href="#g18"/><use y="10574" xlink:href="#g19"/><use y="10591" xlink:href="#g20"/><use y="10608" xlink:href="#g21"/><use y="10625" xlink:href="#g15"/><use y="10642" xlink:href="#g22"/><use y="10659" xlink:href="#g23"/><use y="10676" xlink:href="#g18"/><rect width="8" height="17" x="0" y="10693" class="foreground"/><use y="10693" xlink:href="#g1"/></g><g><rect width="136" height="17" x="0" y="10982" class="color4"/><use y="10982" xlink:href="#g8"/><use y="10999" xlink:href="#g10"/><use y="11016" xlink:href="#g11"/><use y="11033" xlink:href="#g12"/><use y="11050" xlink:href="#g13"/><use y="11067" xlink:href="#g14"/><use y="11084" xlink:href="#g15"/><use y="11101" xlink:href="#g16"/><use y="11118" xlink:href="#g17"/><use y="11135" xlink:href="#g18"/><use y="11152" xlink:href="#g19"/><use y="11169" xlink:href="#g20"/><use y="11186" xlink:href="#g21"/><use y="11203" xlink:href="#g15"/><use y="11220" xlink:href="#g22"/><use y="11237" xlink:href="#g23"/><use y="11254" xlink:href="#g18"/><use y="11271" xlink:href="#g24"/><use y="11288" xlink:href="#g25"/><rect width="8" height="17" x="0" y="11305" class="foreground"/><use y="11305" xlink:href="#g1"/></g><g><rect width="136" height="17" x="0" y="11560" class="color4"/><use y="11560" xlink:href="#g8"/><use y="11577" xlink:href="#g10"/><use y="11594" xlink:href="#g11"/><use y="11611" xlink:href="#g12"/><use y="11628" xlink:href="#g13"/><use y="11645" xlink:href="#g14"/><use y="11662" xlink:href="#g15"/><use y="11679" xlink:href="#g16"/><use y="11696" xlink:href="#g17"/><use y="11713" xlink:href="#g18"/><use y="11730" xlink:href="#g19"/><use y="11747" xlink:href="#g20"/><use y="11764" xlink:href="#g21"/><use y="11781" xlink:href="#g15"/><use y="11798" xlink:href="#g22"/><use y="11815" xlink:href="#g23"/><use y="11832" xlink:href="#g18"/><use y="11849" xlink:href="#g24"/><use y="11866" xlink:href="#g25"/><use y="11883" xlink:href="#g26"/><use y="11900" xlink:href="#g15"/><rect width="8" height="17" x="0" y="11917" class="foreground"/><use y="11917" xlink:href="#g1"/></g><g><rect width="136" height="17" x="0" y="12138" class="color4"/><use y="12138" xlink:href="#g8"/><use y="12155" xlink:href="#g10"/><use y="12172" xlink:href="#g11"/><use y="12189" xlink:href="#g12"/><use y="12206" xlink:href="#g13"/><use y="12223" xlink:href="#g14"/><use y="12240" xlink:href="#g15"/><use y="12257" xlink:href="#g16"/><use y="12274" xlink:href="#g17"/><use y="12291" xlink:href="#g18"/><use y="12308" xlink:href="#g19"/><use y="12325" xlink:href="#g20"/><use y="12342" xlink:href="#g21"/><use y="12359" xlink:href="#g15"/><use y="12376" xlink:href="#g22"/><use y="12393" xlink:href="#g23"/><use y="12410" xlink:href="#g18"/><use y="12427" xlink:href="#g24"/><use y="12444" xlink:href="#g25"/><use y="12461" xlink:href="#g26"/><use y="12478" xlink:href="#g15"/><use y="12495" xlink:href="#g27"/><use y="12512" xlink:href="#g28"/><rect width="8" height="17" x="0" y="12529" class="foreground"/><use y="12529" xlink:href="#g1"/></g><g><rect width="136" height="17" x="0" y="12716" class="color4"/><use y="12716" xlink:href="#g8"/><use y="12733" xlink:href="#g10"/><use y="12750" xlink:href="#g11"/><use y="12767" xlink:href="#g12"/><use y="12784" xlink:href="#g13"/><use y="12801" xlink:href="#g14"/><use y="12818" xlink:href="#g15"/><use y="12835" xlink:href="#g16"/><use y="12852" xlink:href="#g17"/><use y="12869" xlink:href="#g18"/><use y="12886" xlink:href="#g19"/><use y="12903" xlink:href="#g20"/><use y="12920" xlink:href="#g21"/><use y="12937" xlink:href="#g15"/><use y="12954" xlink:href="#g22"/><use y="12971" xlink:href="#g23"/><use y="12988" xlink:href="#g18"/><use y="13005" xlink:href="#g24"/><use y="13022" xlink:href="#g25"/><use y="13039" xlink:href="#g26"/><use y="13056" xlink:href="#g15"/><use y="13073" xlink:href="#g27"/><use y="13090" xlink:href="#g28"/><use y="13107" xlink:href="#g18"/><rect width="8" height="17" x="0" y="13124" class="foreground"/><use y="13124" xlink:href="#g1"/></g><g><rect width="136" height="17" x="0" y="13294" class="color4"/><use y="13294" xlink:href="#g8"/><use y="13311" xlink:href="#g10"/><use y="13328" xlink:href="#g11"/><use y="13345" xlink:href="#g12"/><use y="13362" xlink:href="#g13"/><use y="13379" xlink:href="#g14"/><use y="13396" xlink:href="#g15"/><use y="13413" xlink:href="#g16"/><use y="13430" xlink:href="#g17"/><use y="13447" xlink:href="#g18"/><use y="13464" xlink:href="#g19"/><use y="13481" xlink:href="#g20"/><use y="13498" xlink:href="#g21"/><use y="13515" xlink:href="#g15"/><use y="13532" xlink:href="#g22"/><use y="13549" xlink:href="#g23"/><use y="13566" xlink:href="#g18"/><use y="13583" xlink:href="#g24"/><use y="13600" xlink:href="#g25"/><use y="13617" xlink:href="#g26"/><use y="13634" xlink:href="#g15"/><use y="13651" xlink:href="#g27"/><use y="13668" xlink:href="#g28"/><use y="13685" xlink:href="#g18"/><use y="13702" xlink:href="#g29"/><rect width="8" height="17" x="0" y="13719" class="color6"/><use y="13719" xlink:href="#g1"/></g><g><rect width="136" height="17" x="0" y="13872" class="color4"/><use y="13872" xlink:href="#g8"/><use y="13889" xlink:href="#g10"/><use y="13906" xlink:href="#g11"/><use y="13923" xlink:href="#g12"/><use y="13940" xlink:href="#g13"/><use y="13957" xlink:href="#g14"/><use y="13974" xlink:href="#g15"/><use y="13991" xlink:href="#g16"/><use y="14008" xlink:href="#g17"/><use y="14025" xlink:href="#g18"/><use y="14042" xlink:href="#g19"/><use y="14059" xlink:href="#g20"/><use y="14076" xlink:href="#g21"/><use y="14093" xlink:href="#g15"/><use y="14110" xlink:href="#g22"/><use y="14127" xlink:href="#g23"/><use y="14144" xlink:href="#g18"/><use y="14161" xlink:href="#g24"/><use y="14178" xlink:href="#g25"/><use y="14195" xlink:href="#g26"/><use y="14212" xlink:href="#g15"/><use y="14229" xlink:href="#g27"/><use y="14246" xlink:href="#g28"/><use y="14263" xlink:href="#g18"/><use y="14280" xlink:href="#g29"/><use y="14297" xlink:href="#g30"/><use y="14314" xlink:href="#g31"/><use y="14331" xlink:href="#g32"/><rect width="136" height="17" x="0" y="14348" class="color4"/><rect width="8" height="17" x="176" y="14348" class="foreground"/><use y="14348" xlink:href="#g2"/></g><g><rect width="136" height="17" x="0" y="14450" class="color4"/><use y="14450" xlink:href="#g8"/><use y="14467" xlink:href="#g10"/><use y="14484" xlink:href="#g11"/><use y="14501" xlink:href="#g12"/><use y="14518" xlink:href="#g13"/><use y="14535" xlink:href="#g14"/><use y="14552" xlink:href="#g15"/><use y="14569" xlink:href="#g16"/><use y="14586" xlink:href="#g17"/><use y="14603" xlink:href="#g18"/><use y="14620" xlink:href="#g19"/><use y="14637" xlink:href="#g20"/><use y="14654" xlink:href="#g21"/><use y="14671" xlink:href="#g15"/><use y="14688" xlink:href="#g22"/><use y="14705" xlink:href="#g23"/><use y="14722" xlink:href="#g18"/><use y="14739" xlink:href="#g24"/><use y="14756" xlink:href="#g25"/><use y="14773" xlink:href="#g26"/><use y="14790" xlink:href="#g15"/><use y="14807" xlink:href="#g27"/><use y="14824" xlink:href="#g28"/><use y="14841" xlink:href="#g18"/><use y="14858" xlink:href="#g29"/><use y="14875" xlink:href="#g30"/><use y="14892" xlink:href="#g31"/><use y="14909" xlink:href="#g32"/><rect width="136" height="17" x="0" y="14926" class="color4"/><use y="14926" xlink:href="#g33"/><rect width="8" height="17" x="0" y="14943" class="foreground"/><use y="14943" xlink:href="#g1"/></g></g></svg></svg>