<svg xmlns="http://www.w3.org/2000/svg" xmlns:xlink="http://www.w3.org/1999/xlink" id="terminal" width="1016" baseProfile="full" version="1.1" viewBox="0 0 1016 563"><defs><termtosvg:template_settings xmlns:termtosvg="https://github.com/nbedos/termtosvg"><termtosvg:screen_geometry columns="127" rows="33"/><termtosvg:animation type="css"/></termtosvg:template_settings><style id="generated-style" type="text/css">@keyframes roll{0%{transform:translateY(0)}1.3%{transform:translateY(-578px)}5.709%{transform:translateY(-1156px)}7.291%{transform:translateY(-1734px)}7.8%{transform:translateY(-2312px)}8.416%{transform:translateY(-2890px)}9.1%{transform:translateY(-3468px)}9.637%{transform:translateY(-4046px)}10.541%{transform:translateY(-4624px)}11.022%{transform:translateY(-5202px)}11.955%{transform:translateY(-5780px)}12.576%{transform:translateY(-6358px)}12.944%{transform:translateY(-6936px)}13.882%{transform:translateY(-7514px)}15.662%{transform:translateY(-8092px)}16.906%{transform:translateY(-8670px)}17.697%{transform:translateY(-9248px)}18.319%{transform:translateY(-9826px)}19.178%{transform:translateY(-10404px)}23.898%{transform:translateY(-10982px)}26.837%{transform:translateY(-11560px)}30.375%{transform:translateY(-12138px)}30.392%{transform:translateY(-12716px)}30.635%{transform:translateY(-13294px)}63.893%{transform:translateY(-13872px)}64.673%{transform:translateY(-14450px)}64.69%{transform:translateY(-15028px)}64.939%{transform:translateY(-15606px)}64.962%{transform:translateY(-16184px)}87.531%{transform:translateY(-16762px)}87.542%{transform:translateY(-17340px)}94.348%{transform:translateY(-17918px)}}#screen{font-family:&apos;DejaVu Sans Mono&apos;,monospace;font-style:normal;font-size:14px}text{dominant-baseline:text-before-edge;white-space:pre}:root{--animation-duration:17692ms}#screen_view{animation-duration:17692ms;animation-iteration-count:infinite;animation-name:roll;animation-timing-function:steps(1,end);animation-fill-mode:forwards}</style><style id="user-style" type="text/css">.foreground{fill:#ccc}.background{fill:#0c0c0c}.color2{fill:#13a10e}.color4{fill:#0037da}.color5{fill:#881798}.color6{fill:#3a96dd}.color10{fill:#16c60c}.color14{fill:#61d6d6}.color15{fill:#f2f2f2}</style></defs><svg id="screen" width="1016" height="561" preserveAspectRatio="xMidYMin slice" viewBox="0 0 1016 561"><rect width="100%" height="100%" x="0" y="0" class="background"/><defs><g id="g2"><text x="0" class="foreground" textLength="144">nikhil@purpleterm</text><text x="144" class="color10" font-weight="bold" textLength="216">~/Projects/kindle-send/dist</text></g><g id="g3"><text x="0" class="color15" font-weight="bold" textLength="24">%</text></g><g id="g4"><text x="0" class="color15" font-weight="bold" textLength="24">%</text><text x="24" class="foreground" textLength="8">k</text></g><g id="g5"><text x="0" class="color15" font-weight="bold" textLength="24">%</text><text x="24" class="foreground" textLength="16">ki</text></g><g id="g6"><text x="0" class="color15" font-weight="bold" textLength="24">%</text><text x="24" class="foreground" textLength="24">kin</text></g><g id="g7"><text x="0" class="color15" font-weight="bold" textLength="24">%</text><text x="24" class="foreground" textLength="32">kind</text></g><g id="g8"><text x="0" class="color15" font-weight="bold" textLength="24">%</text><text x="24" class="foreground" textLength="40">kindl</text></g><g id="g9"><text x="0" class="color15" font-weight="bold" textLength="24">%</text><text x="24" class="foreground" textLength="48">kindle</text></g><g id="g10"><text x="0" class="color15" font-weight="bold" textLength="24">%</text><text x="24" class="foreground" textLength="56">kindle-</text></g><g id="g11"><text x="0" class="color15" font-weight="bold" textLength="24">%</text><text x="24" class="foreground" textLength="64">kindle-s</text></g><g id="g12"><text x="0" class="color15" font-weight="bold" textLength="24">%</text><text x="24" class="foreground" textLength="72">kindle-se</text></g><g id="g13"><text x="0" class="color15" font-weight="bold" textLength="24">%</text><text x="24" class="foreground" textLength="80">kindle-sen</text></g><g id="g14"><text x="0" class="color15" font-weight="bold" textLength="24">%</text><text x="24" class="foreground" textLength="88">kindle-send</text></g><g id="g15"><text x="0" class="color15" font-weight="bold" textLength="24">%</text><text x="24" class="foreground" textLength="96">kindle-send</text></g><g id="g16"><text x="0" class="color15" font-weight="bold" textLength="24">%</text><text x="24" class="foreground" textLength="104">kindle-send s</text></g><g id="g17"><text x="0" class="color15" font-weight="bold" textLength="24">%</text><text x="24" class="foreground" textLength="112">kindle-send se</text></g><g id="g18"><text x="0" class="color15" font-weight="bold" textLength="24">%</text><text x="24" class="foreground" textLength="120">kindle-send sen</text></g><g id="g19"><text x="0" class="color15" font-weight="bold" textLength="24">%</text><text x="24" class="foreground" textLength="128">kindle-send send</text></g><g id="g20"><text x="0" class="color15" font-weight="bold" textLength="24">%</text><text x="24" class="foreground" textLength="136">kindle-send send</text></g><g id="g21"><text x="0" class="color15" font-weight="bold" textLength="24">%</text><text x="24" class="foreground" textLength="136">kindle-send send</text><text x="160" class="background" textLength="248">http://paulgraham.com/hwh.html</text></g><g id="g22"><text x="0" class="color15" font-weight="bold" textLength="24">%</text><text x="24" class="foreground" textLength="376">kindle-send send http://paulgraham.com/hwh.html</text></g><g id="g23"><text x="0" class="color15" font-weight="bold" textLength="24">%</text><text x="24" class="foreground" textLength="992">kindle-send send http://paulgraham.com/hwh.html</text></g><g id="g24"><text x="0" class="color2" textLength="160">Loaded configuration</text></g><g id="g25"><text x="0" class="color2" textLength="472">Fetched http://paulgraham.com/hwh.html --&gt; How to Work Hard</text></g><g id="g26"><text x="0" class="color5" textLength="648">No title supplied, inheriting title of first readable article : How to Work Hard</text></g><g id="g27"><text x="0" class="color6" textLength="296">Embedding images in How to Work Hard</text></g><g id="g28"><text x="0" class="color14" font-weight="bold" textLength="144">Downloading Images</text></g><g id="g29"><text x="0" class="color2" textLength="584">Downloaded image https://s.yimg.com/aah/paulgraham/how-to-work-hard-1.gif</text></g><g id="g30"><text x="0" class="color2" textLength="944">Setting img src from https://s.yimg.com/aah/paulgraham/how-to-work-hard-1.gif to ../images/img2629001342237532148.png</text></g><g id="g31"><text x="0" class="color2" textLength="128">Added 1 articles</text></g><g id="g32"><text x="0" class="color14" font-weight="bold" textLength="96">Sending mail</text></g><g id="g33"><text x="0" class="color6" textLength="160">Mail timeout : 2m0s</text></g><g id="g34"><text x="0" class="color6" textLength="240">Following files will be sent :</text></g><g id="g35"><text x="0" class="color6" textLength="192">1. How to Work Hard.epub</text></g><g id="g36"><text x="0" class="color10" font-weight="bold" textLength="352">Mailed 1 files to purple_terminal@kindle.com</text></g><g id="g37"><text x="0" class="color10" font-weight="bold" textLength="352">Mailed 1 files to purple_terminal@kindle.com</text><text x="352" class="background" font-weight="bold" textLength="8">%</text></g><g id="g38"><text x="0" class="color15" font-weight="bold" textLength="24">%</text></g></defs><g id="screen_view"><g><rect width="8" height="17" x="0" y="0" class="foreground"/><use y="0" xlink:href="#g1"/></g><g><rect width="136" height="17" x="0" y="578" class="color4"/><use y="578" xlink:href="#g2"/><rect width="8" height="17" x="24" y="595" class="foreground"/><use y="595" xlink:href="#g3"/></g><g><rect width="136" height="17" x="0" y="1156" class="color4"/><use y="1156" xlink:href="#g2"/><rect width="8" height="17" x="32" y="1173" class="foreground"/><use y="1173" xlink:href="#g4"/></g><g><rect width="136" height="17" x="0" y="1734" class="color4"/><use y="1734" xlink:href="#g2"/><rect width="8" height="17" x="40" y="1751" class="foreground"/><use y="1751" xlink:href="#g5"/></g><g><rect width="136" height="17" x="0" y="2312" class="color4"/><use y="2312" xlink:href="#g2"/><rect width="8" height="17" x="48" y="2329" class="foreground"/><use y="2329" xlink:href="#g6"/></g><g><rect width="136" height="17" x="0" y="2890" class="color4"/><use y="2890" xlink:href="#g2"/><rect width="8" height="17" x="56" y="2907" class="foreground"/><use y="2907" xlink:href="#g7"/></g><g><rect width="136" height="17" x="0" y="3468" class="color4"/><use y="3468" xlink:href="#g2"/><rect width="8" height="17" x="64" y="3485" class="foreground"/><use y="3485" xlink:href="#g8"/></g><g><rect width="136" height="17" x="0" y="4046" class="color4"/><use y="4046" xlink:href="#g2"/><rect width="8" height="17" x="72" y="4063" class="foreground"/><use y="4063" xlink:href="#g9"/></g><g><rect width="136" height="17" x="0" y="4624" class="color4"/><use y="4624" xlink:href="#g2"/><rect width="8" height="17" x="80" y="4641" class="foreground"/><use y="4641" xlink:href="#g10"/></g><g><rect width="136" height="17" x="0" y="5202" class="color4"/><use y="5202" xlink:href="#g2"/><rect width="8" height="17" x="88" y="5219" class="foreground"/><use y="5219" xlink:href="#g11"/></g><g><rect width="136" height="17" x="0" y="5780" class="color4"/><use y="5780" xlink:href="#g2"/><rect width="8" height="17" x="96" y="5797" class="foreground"/><use y="5797" xlink:href="#g12"/></g><g><rect width="136" height="17" x="0" y="6358" class="color4"/><use y="6358" xlink:href="#g2"/><rect width="8" height="17" x="104" y="6375" class="foreground"/><use y="6375" xlink:href="#g13"/></g><g><rect width="136" height="17" x="0" y="6936" class="color4"/><use y="6936" xlink:href="#g2"/><rect width="8" height="17" x="112" y="6953" class="foreground"/><use y="6953" xlink:href="#g14"/></g><g><rect width="136" height="17" x="0" y="7514" class="color4"/><use y="7514" xlink:href="#g2"/><rect width="8" height="17" x="120" y="7531" class="foreground"/><use y="7531" xlink:href="#g15"/></g><g><rect width="136" height="17" x="0" y="8092" class="color4"/><use y="8092" xlink:href="#g2"/><rect width="8" height="17" x="128" y="8109" class="foreground"/><use y="8109" xlink:href="#g16"/></g><g><rect width="136" height="17" x="0" y="8670" class="color4"/><use y="8670" xlink:href="#g2"/><rect width="8" height="17" x="136" y="8687" class="foreground"/><use y="8687" xlink:href="#g17"/></g><g><rect width="136" height="17" x="0" y="9248" class="color4"/><use y="9248" xlink:href="#g2"/><rect width="8" height="17" x="144" y="9265" class="foreground"/><use y="9265" xlink:href="#g18"/></g><g><rect width="136" height="17" x="0" y="9826" class="color4"/><use y="9826" xlink:href="#g2"/><rect width="8" height="17" x="152" y="9843" class="foreground"/><use y="9843" xlink:href="#g19"/></g><g><rect width="136" height="17" x="0" y="10404" class="color4"/><use y="10404" xlink:href="#g2"/><rect width="8" height="17" x="160" y="10421" class="foreground"/><use y="10421" xlink:href="#g20"/></g><g><rect width="136" height="17" x="0" y="10982" class="color4"/><use y="10982" xlink:href="#g2"/><rect width="248" height="17" x="160" y="10999" class="foreground"/><use y="10999" xlink:href="#g21"/></g><g><rect width="136" height="17" x="0" y="11560" class="color4"/><use y="11560" xlink:href="#g2"/><rect width="8" height="17" x="400" y="11577" class="foreground"/><use y="11577" xlink:href="#g22"/></g><g><rect width="136" height="17" x="0" y="12138" class="color4"/><use y="12138" xlink:href="#g2"/><rect width="8" height="17" x="400" y="12155" class="foreground"/><use y="12155" xlink:href="#g22"/></g><g><rect width="136" height="17" x="0" y="12716" class="color4"/><use y="12716" xlink:href="#g2"/><use y="12733" xlink:href="#g23"/><rect width="8" height="17" x="0" y="12750" class="foreground"/><use y="12750" xlink:href="#g1"/></g><g><rect width="136" height="17" x="0" y="13294" class="color4"/><use y="13294" xlink:href="#g2"/><use y="13311" xlink:href="#g23"/><use y="13328" xlink:href="#g24"/><rect width="8" height="17" x="0" y="13345" class="foreground"/><use y="13345" xlink:href="#g1"/></g><g><rect width="136" height="17" x="0" y="13872" class="color4"/><use y="13872" xlink:href="#g2"/><use y="13889" xlink:href="#g23"/><use y="13906" xlink:href="#g24"/><use y="13923" xlink:href="#g25"/><use y="13940" xlink:href="#g26"/><use y="13957" xlink:href="#g27"/><use y="13974" xlink:href="#g28"/><rect width="8" height="17" x="0" y="13991" class="foreground"/><use y="13991" xlink:href="#g1"/></g><g><rect width="136" height="17" x="0" y="14450" class="color4"/><use y="14450" xlink:href="#g2"/><use y="14467" xlink:href="#g23"/><use y="14484" xlink:href="#g24"/><use y="14501" xlink:href="#g25"/><use y="14518" xlink:href="#g26"/><use y="14535" xlink:href="#g27"/><use y="14552" xlink:href="#g28"/><use y="14569" xlink:href="#g29"/><use y="14586" xlink:href="#g30"/><rect width="8" height="17" x="0" y="14603" class="foreground"/><use y="14603" xlink:href="#g1"/></g><g><rect width="136" height="17" x="0" y="15028" class="color4"/><use y="15028" xlink:href="#g2"/><use y="15045" xlink:href="#g23"/><use y="15062" xlink:href="#g24"/><use y="15079" xlink:href="#g25"/><use y="15096" xlink:href="#g26"/><use y="15113" xlink:href="#g27"/><use y="15130" xlink:href="#g28"/><use y="15147" xlink:href="#g29"/><use y="15164" xlink:href="#g30"/><use y="15181" xlink:href="#g31"/><rect width="8" height="17" x="0" y="15198" class="foreground"/><use y="15198" xlink:href="#g1"/></g><g><rect width="136" height="17" x="0" y="15606" class="color4"/><use y="15606" xlink:href="#g2"/><use y="15623" xlink:href="#g23"/><use y="15640" xlink:href="#g24"/><use y="15657" xlink:href="#g25"/><use y="15674" xlink:href="#g26"/><use y="15691" xlink:href="#g27"/><use y="15708" xlink:href="#g28"/><use y="15725" xlink:href="#g29"/><use y="15742" xlink:href="#g30"/><use y="15759" xlink:href="#g31"/><use y="15776" xlink:href="#g32"/><use y="15793" xlink:href="#g33"/><rect width="8" height="17" x="0" y="15810" class="foreground"/><use y="15810" xlink:href="#g1"/></g><g><rect width="136" height="17" x="0" y="16184" class="color4"/><use y="16184" xlink:href="#g2"/><use y="16201" xlink:href="#g23"/><use y="16218" xlink:href="#g24"/><use y="16235" xlink:href="#g25"/><use y="16252" xlink:href="#g26"/><use y="16269" xlink:href="#g27"/><use y="16286" xlink:href="#g28"/><use y="16303" xlink:href="#g29"/><use y="16320" xlink:href="#g30"/><use y="16337" xlink:href="#g31"/><use y="16354" xlink:href="#g32"/><use y="16371" xlink:href="#g33"/><use y="16388" xlink:href="#g34"/><use y="16405" xlink:href="#g35"/><rect width="8" height="17" x="0" y="16422" class="foreground"/><use y="16422" xlink:href="#g1"/></g><g><rect width="136" height="17" x="0" y="16762" class="color4"/><use y="16762" xlink:href="#g2"/><use y="16779" xlink:href="#g23"/><use y="16796" xlink:href="#g24"/><use y="16813" xlink:href="#g25"/><use y="16830" xlink:href="#g26"/><use y="16847" xlink:href="#g27"/><use y="16864" xlink:href="#g28"/><use y="16881" xlink:href="#g29"/><use y="16898" xlink:href="#g30"/><use y="16915" xlink:href="#g31"/><use y="16932" xlink:href="#g32"/><use y="16949" xlink:href="#g33"/><use y="16966" xlink:href="#g34"/><use y="16983" xlink:href="#g35"/><rect width="8" height="17" x="352" y="17000" class="foreground"/><use y="17000" xlink:href="#g36"/></g><g><rect width="136" height="17" x="0" y="17340" class="color4"/><use y="17340" xlink:href="#g2"/><use y="17357" xlink:href="#g23"/><use y="17374" xlink:href="#g24"/><use y="17391" xlink:href="#g25"/><use y="17408" xlink:href="#g26"/><use y="17425" xlink:href="#g27"/><use y="17442" xlink:href="#g28"/><use y="17459" xlink:href="#g29"/><use y="17476" xlink:href="#g30"/><use y="17493" xlink:href="#g31"/><use y="17510" xlink:href="#g32"/><use y="17527" xlink:href="#g33"/><use y="17544" xlink:href="#g34"/><use y="17561" xlink:href="#g35"/><rect width="8" height="17" x="352" y="17578" class="foreground"/><use y="17578" xlink:href="#g37"/><rect width="136" height="17" x="0" y="17595" class="color4"/><use y="17595" xlink:href="#g2"/><rect width="8" height="17" x="24" y="17612" class="foreground"/><use y="17612" xlink:href="#g3"/></g><g><rect width="136" height="17" x="0" y="17918" class="color4"/><use y="17918" xlink:href="#g2"/><use y="17935" xlink:href="#g23"/><use y="17952" xlink:href="#g24"/><use y="17969" xlink:href="#g25"/><use y="17986" xlink:href="#g26"/><use y="18003" xlink:href="#g27"/><use y="18020" xlink:href="#g28"/><use y="18037" xlink:href="#g29"/><use y="18054" xlink:href="#g30"/><use y="18071" xlink:href="#g31"/><use y="18088" xlink:href="#g32"/><use y="18105" xlink:href="#g33"/><use y="18122" xlink:href="#g34"/><use y="18139" xlink:href="#g35"/><rect width="8" height="17" x="352" y="18156" class="foreground"/><use y="18156" xlink:href="#g37"/><rect width="136" height="17" x="0" y="18173" class="color4"/><use y="18173" xlink:href="#g2"/><use y="18190" xlink:href="#g38"/><rect width="8" height="17" x="0" y="18207" class="foreground"/><use y="18207" xlink:href="#g1"/></g></g></svg></svg>