<svg xmlns="http://www.w3.org/2000/svg" xmlns:xlink="http://www.w3.org/1999/xlink" id="terminal" width="1016" baseProfile="full" version="1.1" viewBox="0 0 1016 563"><defs><termtosvg:template_settings xmlns:termtosvg="https://github.com/nbedos/termtosvg"><termtosvg:screen_geometry columns="127" rows="33"/><termtosvg:animation type="css"/></termtosvg:template_settings><style id="generated-style" type="text/css">@keyframes roll{0%{transform:translateY(0)}1.089%{transform:translateY(-578px)}2.274%{transform:translateY(-1156px)}3.282%{transform:translateY(-1734px)}3.509%{transform:translateY(-2312px)}3.892%{transform:translateY(-2890px)}4.467%{transform:translateY(-3468px)}4.968%{transform:translateY(-4046px)}5.492%{transform:translateY(-4624px)}6.107%{transform:translateY(-5202px)}6.837%{transform:translateY(-5780px)}7.269%{transform:translateY(-6358px)}7.725%{transform:translateY(-6936px)}8.263%{transform:translateY(-7514px)}8.637%{transform:translateY(-8092px)}9.434%{transform:translateY(-8670px)}9.918%{transform:translateY(-9248px)}10.442%{transform:translateY(-9826px)}11.016%{transform:translateY(-10404px)}14.913%{transform:translateY(-10982px)}15.551%{transform:translateY(-11560px)}16.745%{transform:translateY(-12138px)}19.361%{transform:translateY(-12716px)}19.375%{transform:translateY(-13294px)}19.557%{transform:translateY(-13872px)}23.969%{transform:translateY(-14450px)}25.459%{transform:translateY(-15028px)}33.262%{transform:translateY(-15606px)}33.271%{transform:translateY(-16184px)}33.33%{transform:translateY(-16762px)}33.385%{transform:translateY(-17340px)}33.449%{transform:translateY(-17918px)}33.522%{transform:translateY(-18496px)}33.576%{transform:translateY(-19074px)}33.636%{transform:translateY(-19652px)}33.663%{transform:translateY(-20230px)}48.712%{transform:translateY(-20808px)}90.324%{transform:translateY(-21386px)}90.361%{transform:translateY(-21964px)}95.442%{transform:translateY(-22542px)}}#screen{font-family:&apos;DejaVu Sans Mono&apos;,monospace;font-style:normal;font-size:14px}text{dominant-baseline:text-before-edge;white-space:pre}:root{--animation-duration:21941ms}#screen_view{animation-duration:21941ms;animation-iteration-count:infinite;animation-name:roll;animation-timing-function:steps(1,end);animation-fill-mode:forwards}</style><style id="user-style" type="text/css">.foreground{fill:#ccc}.background{fill:#0c0c0c}.color2{fill:#13a10e}.color4{fill:#0037da}.color5{fill:#881798}.color6{fill:#3a96dd}.color10{fill:#16c60c}.color14{fill:#61d6d6}.color15{fill:#f2f2f2}</style></defs><svg id="screen" width="1016" height="561" preserveAspectRatio="xMidYMin slice" viewBox="0 0 1016 561"><rect width="100%" height="100%" x="0" y="0" class="background"/><defs><g id="g2"><text x="0" class="foreground" textLength="144">nikhil@purpleterm</text><text x="144" class="color10" font-weight="bold" textLength="216">~/Projects/kindle-send/dist</text></g><g id="g3"><text x="0" class="color15" font-weight="bold" textLength="24">%</text></g><g id="g4"><text x="0" class="color15" font-weight="bold" textLength="24">%</text><text x="24" class="foreground" textLength="8">k</text></g><g id="g5"><text x="0" class="color15" font-weight="bold" textLength="24">%</text><text x="24" class="foreground" textLength="16">ki</text></g><g id="g6"><text x="0" class="color15" font-weight="bold" textLength="24">%</text><text x="24" class="foreground" textLength="24">kin</text></g><g id="g7"><text x="0" class="color15" font-weight="bold" textLength="24">%</text><text x="24" class="foreground" textLength="32">kind</text></g><g id="g8"><text x="0" class="color15" font-weight="bold" textLength="24">%</text><text x="24" class="foreground" textLength="40">kindl</text></g><g id="g9"><text x="0" class="color15" font-weight="bold" textLength="24">%</text><text x="24" class="foreground" textLength="48">kindle</text></g><g id="g10"><text x="0" class="color15" font-weight="bold" textLength="24">%</text><text x="24" class="foreground" textLength="56">kindle-</text></g><g id="g11"><text x="0" class="color15" font-weight="bold" textLength="24">%</text><text x="24" class="foreground" textLength="64">kindle-s</text></g><g id="g12"><text x="0" class="color15" font-weight="bold" textLength="24">%</text><text x="24" class="foreground" textLength="72">kindle-se</text></g><g id="g13"><text x="0" class="color15" font-weight="bold" textLength="24">%</text><text x="24" class="foreground" textLength="80">kindle-sen</text></g><g id="g14"><text x="0" class="color15" font-weight="bold" textLength="24">%</text><text x="24" class="foreground" textLength="88">kindle-send</text></g><g id="g15"><text x="0" class="color15" font-weight="bold" textLength="24">%</text><text x="24" class="foreground" textLength="96">kindle-send</text></g><g id="g16"><text x="0" class="color15" font-weight="bold" textLength="24">%</text><text x="24" class="foreground" textLength="104">kindle-send s</text></g><g id="g17"><text x="0" class="color15" font-weight="bold" textLength="24">%</text><text x="24" class="foreground" textLength="112">kindle-send se</text></g><g id="g18"><text x="0" class="color15" font-weight="bold" textLength="24">%</text><text x="24" class="foreground" textLength="120">kindle-send sen</text></g><g id="g19"><text x="0" class="color15" font-weight="bold" textLength="24">%</text><text x="24" class="foreground" textLength="128">kindle-send send</text></g><g id="g20"><text x="0" class="color15" font-weight="bold" textLength="24">%</text><text x="24" class="foreground" textLength="136">kindle-send send</text></g><g id="g21"><text x="0" class="color15" font-weight="bold" textLength="24">%</text><text x="24" class="foreground" textLength="144">kindle-send send b</text></g><g id="g22"><text x="0" class="color15" font-weight="bold" textLength="24">%</text><text x="24" class="foreground" textLength="152">kindle-send send bl</text></g><g id="g23"><text x="0" class="color15" font-weight="bold" textLength="24">%</text><text x="24" class="foreground" textLength="272">kindle-send send blogs-to-read.txt</text></g><g id="g24"><text x="0" class="color15" font-weight="bold" textLength="24">%</text><text x="24" class="foreground" textLength="272">kindle-send send blogs-to-read.txt</text></g><g id="g25"><text x="0" class="color15" font-weight="bold" textLength="24">%</text><text x="24" class="foreground" textLength="992">kindle-send send blogs-to-read.txt</text></g><g id="g26"><text x="0" class="color2" textLength="160">Loaded configuration</text></g><g id="g27"><text x="0" class="color2" textLength="832">Fetched https://dev.37signals.com/making-export-jobs-more-reliable/ --&gt; Making export jobs more reliable</text></g><g id="g28"><text x="0" class="color2" textLength="584">Fetched https://werat.dev/blog/how-wine-works-101/ --&gt; How Wine works 101</text></g><g id="g29"><text x="0" class="color2" textLength="1016">Fetched https://eli.thegreenplace.net/2023/the-power-of-single-method-interfaces-in-go/ --&gt; The power of single-method interfac</text></g><g id="g30"><text x="0" class="color2" textLength="64">es in Go</text></g><g id="g31"><text x="0" class="color5" textLength="776">No title supplied, inheriting title of first readable article : Making export jobs more reliable</text></g><g id="g32"><text x="0" class="color6" textLength="512">Embedding images in The power of single-method interfaces in Go</text></g><g id="g33"><text x="0" class="color6" textLength="424">Embedding images in Making export jobs more reliable</text></g><g id="g34"><text x="0" class="color6" textLength="312">Embedding images in How Wine works 101</text></g><g id="g35"><text x="0" class="color14" font-weight="bold" textLength="144">Downloading Images</text></g><g id="g36"><text x="0" class="color2" textLength="512">Downloaded image https://werat.dev/blog/how-wine-works-101/1.png</text></g><g id="g37"><text x="0" class="color2" textLength="512">Downloaded image https://werat.dev/blog/how-wine-works-101/2.png</text></g><g id="g38"><text x="0" class="color2" textLength="512">Downloaded image https://werat.dev/blog/how-wine-works-101/3.jpg</text></g><g id="g39"><text x="0" class="color2" textLength="512">Downloaded image https://werat.dev/blog/how-wine-works-101/4.png</text></g><g id="g40"><text x="0" class="color2" textLength="512">Downloaded image https://werat.dev/blog/how-wine-works-101/5.png</text></g><g id="g41"><text x="0" class="color2" textLength="512">Downloaded image https://werat.dev/blog/how-wine-works-101/6.png</text></g><g id="g42"><text x="0" class="color2" textLength="872">Setting img src from https://werat.dev/blog/how-wine-works-101/1.png to ../images/img2780268430588928579.png</text></g><g id="g43"><text x="0" class="color2" textLength="880">Setting img src from https://werat.dev/blog/how-wine-works-101/2.png to ../images/img-9067337077131741777.png</text></g><g id="g44"><text x="0" class="color2" textLength="880">Setting img src from https://werat.dev/blog/how-wine-works-101/3.jpg to ../images/img-7415289659386239854.png</text></g><g id="g45"><text x="0" class="color2" textLength="872">Setting img src from https://werat.dev/blog/how-wine-works-101/4.png to ../images/img8466131737401895787.png</text></g><g id="g46"><text x="0" class="color2" textLength="872">Setting img src from https://werat.dev/blog/how-wine-works-101/5.png to ../images/img3589123057627017774.png</text></g><g id="g47"><text x="0" class="color2" textLength="880">Setting img src from https://werat.dev/blog/how-wine-works-101/6.png to ../images/img-3243055631286236436.png</text></g><g id="g48"><text x="0" class="color2" textLength="128">Added 3 articles</text></g><g id="g49"><text x="0" class="color14" font-weight="bold" textLength="96">Sending mail</text></g><g id="g50"><text x="0" class="color6" textLength="160">Mail timeout : 2m0s</text></g><g id="g51"><text x="0" class="color6" textLength="240">Following files will be sent :</text></g><g id="g52"><text x="0" class="color6" textLength="320">1. Making export jobs more reliable.epub</text></g><g id="g53"><text x="0" class="color10" font-weight="bold" textLength="352">Mailed 1 files to purple_terminal@kindle.com</text></g><g id="g54"><text x="0" class="color10" font-weight="bold" textLength="352">Mailed 1 files to purple_terminal@kindle.com</text><text x="352" class="background" font-weight="bold" textLength="8">%</text></g><g id="g55"><text x="0" class="color15" font-weight="bold" textLength="24">%</text></g></defs><g id="screen_view"><g><rect width="8" height="17" x="0" y="0" class="foreground"/><use y="0" xlink:href="#g1"/></g><g><rect width="136" height="17" x="0" y="578" class="color4"/><use y="578" xlink:href="#g2"/><rect width="8" height="17" x="24" y="595" class="foreground"/><use y="595" xlink:href="#g3"/></g><g><rect width="136" height="17" x="0" y="1156" class="color4"/><use y="1156" xlink:href="#g2"/><rect width="8" height="17" x="32" y="1173" class="foreground"/><use y="1173" xlink:href="#g4"/></g><g><rect width="136" height="17" x="0" y="1734" class="color4"/><use y="1734" xlink:href="#g2"/><rect width="8" height="17" x="40" y="1751" class="foreground"/><use y="1751" xlink:href="#g5"/></g><g><rect width="136" height="17" x="0" y="2312" class="color4"/><use y="2312" xlink:href="#g2"/><rect width="8" height="17" x="48" y="2329" class="foreground"/><use y="2329" xlink:href="#g6"/></g><g><rect width="136" height="17" x="0" y="2890" class="color4"/><use y="2890" xlink:href="#g2"/><rect width="8" height="17" x="56" y="2907" class="foreground"/><use y="2907" xlink:href="#g7"/></g><g><rect width="136" height="17" x="0" y="3468" class="color4"/><use y="3468" xlink:href="#g2"/><rect width="8" height="17" x="64" y="3485" class="foreground"/><use y="3485" xlink:href="#g8"/></g><g><rect width="136" height="17" x="0" y="4046" class="color4"/><use y="4046" xlink:href="#g2"/><rect width="8" height="17" x="72" y="4063" class="foreground"/><use y="4063" xlink:href="#g9"/></g><g><rect width="136" height="17" x="0" y="4624" class="color4"/><use y="4624" xlink:href="#g2"/><rect width="8" height="17" x="80" y="4641" class="foreground"/><use y="4641" xlink:href="#g10"/></g><g><rect width="136" height="17" x="0" y="5202" class="color4"/><use y="5202" xlink:href="#g2"/><rect width="8" height="17" x="88" y="5219" class="foreground"/><use y="5219" xlink:href="#g11"/></g><g><rect width="136" height="17" x="0" y="5780" class="color4"/><use y="5780" xlink:href="#g2"/><rect width="8" height="17" x="96" y="5797" class="foreground"/><use y="5797" xlink:href="#g12"/></g><g><rect width="136" height="17" x="0" y="6358" class="color4"/><use y="6358" xlink:href="#g2"/><rect width="8" height="17" x="104" y="6375" class="foreground"/><use y="6375" xlink:href="#g13"/></g><g><rect width="136" height="17" x="0" y="6936" class="color4"/><use y="6936" xlink:href="#g2"/><rect width="8" height="17" x="112" y="6953" class="foreground"/><use y="6953" xlink:href="#g14"/></g><g><rect width="136" height="17" x="0" y="7514" class="color4"/><use y="7514" xlink:href="#g2"/><rect width="8" height="17" x="120" y="7531" class="foreground"/><use y="7531" xlink:href="#g15"/></g><g><rect width="136" height="17" x="0" y="8092" class="color4"/><use y="8092" xlink:href="#g2"/><rect width="8" height="17" x="128" y="8109" class="foreground"/><use y="8109" xlink:href="#g16"/></g><g><rect width="136" height="17" x="0" y="8670" class="color4"/><use y="8670" xlink:href="#g2"/><rect width="8" height="17" x="136" y="8687" class="foreground"/><use y="8687" xlink:href="#g17"/></g><g><rect width="136" height="17" x="0" y="9248" class="color4"/><use y="9248" xlink:href="#g2"/><rect width="8" height="17" x="144" y="9265" class="foreground"/><use y="9265" xlink:href="#g18"/></g><g><rect width="136" height="17" x="0" y="9826" class="color4"/><use y="9826" xlink:href="#g2"/><rect width="8" height="17" x="152" y="9843" class="foreground"/><use y="9843" xlink:href="#g19"/></g><g><rect width="136" height="17" x="0" y="10404" class="color4"/><use y="10404" xlink:href="#g2"/><rect width="8" height="17" x="160" y="10421" class="foreground"/><use y="10421" xlink:href="#g20"/></g><g><rect width="136" height="17" x="0" y="10982" class="color4"/><use y="10982" xlink:href="#g2"/><rect width="8" height="17" x="168" y="10999" class="foreground"/><use y="10999" xlink:href="#g21"/></g><g><rect width="136" height="17" x="0" y="11560" class="color4"/><use y="11560" xlink:href="#g2"/><rect width="8" height="17" x="176" y="11577" class="foreground"/><use y="11577" xlink:href="#g22"/></g><g><rect width="136" height="17" x="0" y="12138" class="color4"/><use y="12138" xlink:href="#g2"/><rect width="8" height="17" x="304" y="12155" class="foreground"/><use y="12155" xlink:href="#g23"/></g><g><rect width="136" height="17" x="0" y="12716" class="color4"/><use y="12716" xlink:href="#g2"/><rect width="8" height="17" x="296" y="12733" class="foreground"/><use y="12733" xlink:href="#g24"/></g><g><rect width="136" height="17" x="0" y="13294" class="color4"/><use y="13294" xlink:href="#g2"/><use y="13311" xlink:href="#g25"/><rect width="8" height="17" x="0" y="13328" class="foreground"/><use y="13328" xlink:href="#g1"/></g><g><rect width="136" height="17" x="0" y="13872" class="color4"/><use y="13872" xlink:href="#g2"/><use y="13889" xlink:href="#g25"/><use y="13906" xlink:href="#g26"/><rect width="8" height="17" x="0" y="13923" class="foreground"/><use y="13923" xlink:href="#g1"/></g><g><rect width="136" height="17" x="0" y="14450" class="color4"/><use y="14450" xlink:href="#g2"/><use y="14467" xlink:href="#g25"/><use y="14484" xlink:href="#g26"/><use y="14501" xlink:href="#g27"/><rect width="8" height="17" x="0" y="14518" class="foreground"/><use y="14518" xlink:href="#g1"/></g><g><rect width="136" height="17" x="0" y="15028" class="color4"/><use y="15028" xlink:href="#g2"/><use y="15045" xlink:href="#g25"/><use y="15062" xlink:href="#g26"/><use y="15079" xlink:href="#g27"/><use y="15096" xlink:href="#g28"/><rect width="8" height="17" x="0" y="15113" class="foreground"/><use y="15113" xlink:href="#g1"/></g><g><rect width="136" height="17" x="0" y="15606" class="color4"/><use y="15606" xlink:href="#g2"/><use y="15623" xlink:href="#g25"/><use y="15640" xlink:href="#g26"/><use y="15657" xlink:href="#g27"/><use y="15674" xlink:href="#g28"/><use y="15691" xlink:href="#g29"/><use y="15708" xlink:href="#g30"/><use y="15725" xlink:href="#g31"/><rect width="8" height="17" x="0" y="15742" class="foreground"/><use y="15742" xlink:href="#g1"/></g><g><rect width="136" height="17" x="0" y="16184" class="color4"/><use y="16184" xlink:href="#g2"/><use y="16201" xlink:href="#g25"/><use y="16218" xlink:href="#g26"/><use y="16235" xlink:href="#g27"/><use y="16252" xlink:href="#g28"/><use y="16269" xlink:href="#g29"/><use y="16286" xlink:href="#g30"/><use y="16303" xlink:href="#g31"/><use y="16320" xlink:href="#g32"/><use y="16337" xlink:href="#g33"/><use y="16354" xlink:href="#g34"/><use y="16371" xlink:href="#g35"/><rect width="8" height="17" x="0" y="16388" class="foreground"/><use y="16388" xlink:href="#g1"/></g><g><rect width="136" height="17" x="0" y="16762" class="color4"/><use y="16762" xlink:href="#g2"/><use y="16779" xlink:href="#g25"/><use y="16796" xlink:href="#g26"/><use y="16813" xlink:href="#g27"/><use y="16830" xlink:href="#g28"/><use y="16847" xlink:href="#g29"/><use y="16864" xlink:href="#g30"/><use y="16881" xlink:href="#g31"/><use y="16898" xlink:href="#g32"/><use y="16915" xlink:href="#g33"/><use y="16932" xlink:href="#g34"/><use y="16949" xlink:href="#g35"/><use y="16966" xlink:href="#g36"/><use y="16983" xlink:href="#g35"/><rect width="8" height="17" x="0" y="17000" class="foreground"/><use y="17000" xlink:href="#g1"/></g><g><rect width="136" height="17" x="0" y="17340" class="color4"/><use y="17340" xlink:href="#g2"/><use y="17357" xlink:href="#g25"/><use y="17374" xlink:href="#g26"/><use y="17391" xlink:href="#g27"/><use y="17408" xlink:href="#g28"/><use y="17425" xlink:href="#g29"/><use y="17442" xlink:href="#g30"/><use y="17459" xlink:href="#g31"/><use y="17476" xlink:href="#g32"/><use y="17493" xlink:href="#g33"/><use y="17510" xlink:href="#g34"/><use y="17527" xlink:href="#g35"/><use y="17544" xlink:href="#g36"/><use y="17561" xlink:href="#g35"/><use y="17578" xlink:href="#g37"/><use y="17595" xlink:href="#g35"/><rect width="8" height="17" x="0" y="17612" class="foreground"/><use y="17612" xlink:href="#g1"/></g><g><rect width="136" height="17" x="0" y="17918" class="color4"/><use y="17918" xlink:href="#g2"/><use y="17935" xlink:href="#g25"/><use y="17952" xlink:href="#g26"/><use y="17969" xlink:href="#g27"/><use y="17986" xlink:href="#g28"/><use y="18003" xlink:href="#g29"/><use y="18020" xlink:href="#g30"/><use y="18037" xlink:href="#g31"/><use y="18054" xlink:href="#g32"/><use y="18071" xlink:href="#g33"/><use y="18088" xlink:href="#g34"/><use y="18105" xlink:href="#g35"/><use y="18122" xlink:href="#g36"/><use y="18139" xlink:href="#g35"/><use y="18156" xlink:href="#g37"/><use y="18173" xlink:href="#g35"/><use y="18190" xlink:href="#g38"/><use y="18207" xlink:href="#g35"/><rect width="8" height="17" x="0" y="18224" class="foreground"/><use y="18224" xlink:href="#g1"/></g><g><rect width="136" height="17" x="0" y="18496" class="color4"/><use y="18496" xlink:href="#g2"/><use y="18513" xlink:href="#g25"/><use y="18530" xlink:href="#g26"/><use y="18547" xlink:href="#g27"/><use y="18564" xlink:href="#g28"/><use y="18581" xlink:href="#g29"/><use y="18598" xlink:href="#g30"/><use y="18615" xlink:href="#g31"/><use y="18632" xlink:href="#g32"/><use y="18649" xlink:href="#g33"/><use y="18666" xlink:href="#g34"/><use y="18683" xlink:href="#g35"/><use y="18700" xlink:href="#g36"/><use y="18717" xlink:href="#g35"/><use y="18734" xlink:href="#g37"/><use y="18751" xlink:href="#g35"/><use y="18768" xlink:href="#g38"/><use y="18785" xlink:href="#g35"/><use y="18802" xlink:href="#g39"/><use y="18819" xlink:href="#g35"/><rect width="8" height="17" x="0" y="18836" class="foreground"/><use y="18836" xlink:href="#g1"/></g><g><rect width="136" height="17" x="0" y="19074" class="color4"/><use y="19074" xlink:href="#g2"/><use y="19091" xlink:href="#g25"/><use y="19108" xlink:href="#g26"/><use y="19125" xlink:href="#g27"/><use y="19142" xlink:href="#g28"/><use y="19159" xlink:href="#g29"/><use y="19176" xlink:href="#g30"/><use y="19193" xlink:href="#g31"/><use y="19210" xlink:href="#g32"/><use y="19227" xlink:href="#g33"/><use y="19244" xlink:href="#g34"/><use y="19261" xlink:href="#g35"/><use y="19278" xlink:href="#g36"/><use y="19295" xlink:href="#g35"/><use y="19312" xlink:href="#g37"/><use y="19329" xlink:href="#g35"/><use y="19346" xlink:href="#g38"/><use y="19363" xlink:href="#g35"/><use y="19380" xlink:href="#g39"/><use y="19397" xlink:href="#g35"/><use y="19414" xlink:href="#g40"/><use y="19431" xlink:href="#g35"/><rect width="8" height="17" x="0" y="19448" class="foreground"/><use y="19448" xlink:href="#g1"/></g><g><rect width="136" height="17" x="0" y="19652" class="color4"/><use y="19652" xlink:href="#g2"/><use y="19669" xlink:href="#g25"/><use y="19686" xlink:href="#g26"/><use y="19703" xlink:href="#g27"/><use y="19720" xlink:href="#g28"/><use y="19737" xlink:href="#g29"/><use y="19754" xlink:href="#g30"/><use y="19771" xlink:href="#g31"/><use y="19788" xlink:href="#g32"/><use y="19805" xlink:href="#g33"/><use y="19822" xlink:href="#g34"/><use y="19839" xlink:href="#g35"/><use y="19856" xlink:href="#g36"/><use y="19873" xlink:href="#g35"/><use y="19890" xlink:href="#g37"/><use y="19907" xlink:href="#g35"/><use y="19924" xlink:href="#g38"/><use y="19941" xlink:href="#g35"/><use y="19958" xlink:href="#g39"/><use y="19975" xlink:href="#g35"/><use y="19992" xlink:href="#g40"/><use y="20009" xlink:href="#g35"/><use y="20026" xlink:href="#g41"/><rect width="8" height="17" x="0" y="20043" class="foreground"/><use y="20043" xlink:href="#g1"/></g><g><rect width="136" height="17" x="0" y="20230" class="color4"/><use y="20230" xlink:href="#g2"/><use y="20247" xlink:href="#g25"/><use y="20264" xlink:href="#g26"/><use y="20281" xlink:href="#g27"/><use y="20298" xlink:href="#g28"/><use y="20315" xlink:href="#g29"/><use y="20332" xlink:href="#g30"/><use y="20349" xlink:href="#g31"/><use y="20366" xlink:href="#g32"/><use y="20383" xlink:href="#g33"/><use y="20400" xlink:href="#g34"/><use y="20417" xlink:href="#g35"/><use y="20434" xlink:href="#g36"/><use y="20451" xlink:href="#g35"/><use y="20468" xlink:href="#g37"/><use y="20485" xlink:href="#g35"/><use y="20502" xlink:href="#g38"/><use y="20519" xlink:href="#g35"/><use y="20536" xlink:href="#g39"/><use y="20553" xlink:href="#g35"/><use y="20570" xlink:href="#g40"/><use y="20587" xlink:href="#g35"/><use y="20604" xlink:href="#g41"/><use y="20621" xlink:href="#g42"/><use y="20638" xlink:href="#g43"/><use y="20655" xlink:href="#g44"/><use y="20672" xlink:href="#g45"/><use y="20689" xlink:href="#g46"/><use y="20706" xlink:href="#g47"/><use y="20723" xlink:href="#g48"/><rect width="8" height="17" x="0" y="20740" class="foreground"/><use y="20740" xlink:href="#g1"/></g><g><use y="20808" xlink:href="#g26"/><use y="20825" xlink:href="#g27"/><use y="20842" xlink:href="#g28"/><use y="20859" xlink:href="#g29"/><use y="20876" xlink:href="#g30"/><use y="20893" xlink:href="#g31"/><use y="20910" xlink:href="#g32"/><use y="20927" xlink:href="#g33"/><use y="20944" xlink:href="#g34"/><use y="20961" xlink:href="#g35"/><use y="20978" xlink:href="#g36"/><use y="20995" xlink:href="#g35"/><use y="21012" xlink:href="#g37"/><use y="21029" xlink:href="#g35"/><use y="21046" xlink:href="#g38"/><use y="21063" xlink:href="#g35"/><use y="21080" xlink:href="#g39"/><use y="21097" xlink:href="#g35"/><use y="21114" xlink:href="#g40"/><use y="21131" xlink:href="#g35"/><use y="21148" xlink:href="#g41"/><use y="21165" xlink:href="#g42"/><use y="21182" xlink:href="#g43"/><use y="21199" xlink:href="#g44"/><use y="21216" xlink:href="#g45"/><use y="21233" xlink:href="#g46"/><use y="21250" xlink:href="#g47"/><use y="21267" xlink:href="#g48"/><use y="21284" xlink:href="#g49"/><use y="21301" xlink:href="#g50"/><use y="21318" xlink:href="#g51"/><use y="21335" xlink:href="#g52"/><rect width="8" height="17" x="0" y="21352" class="foreground"/><use y="21352" xlink:href="#g1"/></g><g><use y="21386" xlink:href="#g26"/><use y="21403" xlink:href="#g27"/><use y="21420" xlink:href="#g28"/><use y="21437" xlink:href="#g29"/><use y="21454" xlink:href="#g30"/><use y="21471" xlink:href="#g31"/><use y="21488" xlink:href="#g32"/><use y="21505" xlink:href="#g33"/><use y="21522" xlink:href="#g34"/><use y="21539" xlink:href="#g35"/><use y="21556" xlink:href="#g36"/><use y="21573" xlink:href="#g35"/><use y="21590" xlink:href="#g37"/><use y="21607" xlink:href="#g35"/><use y="21624" xlink:href="#g38"/><use y="21641" xlink:href="#g35"/><use y="21658" xlink:href="#g39"/><use y="21675" xlink:href="#g35"/><use y="21692" xlink:href="#g40"/><use y="21709" xlink:href="#g35"/><use y="21726" xlink:href="#g41"/><use y="21743" xlink:href="#g42"/><use y="21760" xlink:href="#g43"/><use y="21777" xlink:href="#g44"/><use y="21794" xlink:href="#g45"/><use y="21811" xlink:href="#g46"/><use y="21828" xlink:href="#g47"/><use y="21845" xlink:href="#g48"/><use y="21862" xlink:href="#g49"/><use y="21879" xlink:href="#g50"/><use y="21896" xlink:href="#g51"/><use y="21913" xlink:href="#g52"/><rect width="8" height="17" x="352" y="21930" class="foreground"/><use y="21930" xlink:href="#g53"/></g><g><use y="21964" xlink:href="#g28"/><use y="21981" xlink:href="#g29"/><use y="21998" xlink:href="#g30"/><use y="22015" xlink:href="#g31"/><use y="22032" xlink:href="#g32"/><use y="22049" xlink:href="#g33"/><use y="22066" xlink:href="#g34"/><use y="22083" xlink:href="#g35"/><use y="22100" xlink:href="#g36"/><use y="22117" xlink:href="#g35"/><use y="22134" xlink:href="#g37"/><use y="22151" xlink:href="#g35"/><use y="22168" xlink:href="#g38"/><use y="22185" xlink:href="#g35"/><use y="22202" xlink:href="#g39"/><use y="22219" xlink:href="#g35"/><use y="22236" xlink:href="#g40"/><use y="22253" xlink:href="#g35"/><use y="22270" xlink:href="#g41"/><use y="22287" xlink:href="#g42"/><use y="22304" xlink:href="#g43"/><use y="22321" xlink:href="#g44"/><use y="22338" xlink:href="#g45"/><use y="22355" xlink:href="#g46"/><use y="22372" xlink:href="#g47"/><use y="22389" xlink:href="#g48"/><use y="22406" xlink:href="#g49"/><use y="22423" xlink:href="#g50"/><use y="22440" xlink:href="#g51"/><use y="22457" xlink:href="#g52"/><rect width="8" height="17" x="352" y="22474" class="foreground"/><use y="22474" xlink:href="#g54"/><rect width="136" height="17" x="0" y="22491" class="color4"/><use y="22491" xlink:href="#g2"/><rect width="8" height="17" x="24" y="22508" class="foreground"/><use y="22508" xlink:href="#g3"/></g><g><use y="22542" xlink:href="#g29"/><use y="22559" xlink:href="#g30"/><use y="22576" xlink:href="#g31"/><use y="22593" xlink:href="#g32"/><use y="22610" xlink:href="#g33"/><use y="22627" xlink:href="#g34"/><use y="22644" xlink:href="#g35"/><use y="22661" xlink:href="#g36"/><use y="22678" xlink:href="#g35"/><use y="22695" xlink:href="#g37"/><use y="22712" xlink:href="#g35"/><use y="22729" xlink:href="#g38"/><use y="22746" xlink:href="#g35"/><use y="22763" xlink:href="#g39"/><use y="22780" xlink:href="#g35"/><use y="22797" xlink:href="#g40"/><use y="22814" xlink:href="#g35"/><use y="22831" xlink:href="#g41"/><use y="22848" xlink:href="#g42"/><use y="22865" xlink:href="#g43"/><use y="22882" xlink:href="#g44"/><use y="22899" xlink:href="#g45"/><use y="22916" xlink:href="#g46"/><use y="22933" xlink:href="#g47"/><use y="22950" xlink:href="#g48"/><use y="22967" xlink:href="#g49"/><use y="22984" xlink:href="#g50"/><use y="23001" xlink:href="#g51"/><use y="23018" xlink:href="#g52"/><rect width="8" height="17" x="352" y="23035" class="foreground"/><use y="23035" xlink:href="#g54"/><rect width="136" height="17" x="0" y="23052" class="color4"/><use y="23052" xlink:href="#g2"/><use y="23069" xlink:href="#g55"/><rect width="8" height="17" x="0" y="23086" class="foreground"/><use y="23086" xlink:href="#g1"/></g></g></svg></svg>