<svg xmlns="http://www.w3.org/2000/svg" xmlns:xlink="http://www.w3.org/1999/xlink" id="terminal" width="1016" baseProfile="full" version="1.1" viewBox="0 0 1016 563"><defs><termtosvg:template_settings xmlns:termtosvg="https://github.com/nbedos/termtosvg"><termtosvg:screen_geometry columns="127" rows="33"/><termtosvg:animation type="css"/></termtosvg:template_settings><style id="generated-style" type="text/css">@keyframes roll{0%{transform:translateY(0)}.818%{transform:translateY(-578px)}3.096%{transform:translateY(-1156px)}3.885%{transform:translateY(-1734px)}4.126%{transform:translateY(-2312px)}4.353%{transform:translateY(-2890px)}4.759%{transform:translateY(-3468px)}5.143%{transform:translateY(-4046px)}5.632%{transform:translateY(-4624px)}6.104%{transform:translateY(-5202px)}6.768%{transform:translateY(-5780px)}7.274%{transform:translateY(-6358px)}7.379%{transform:translateY(-6936px)}8.766%{transform:translateY(-7514px)}9.391%{transform:translateY(-8092px)}10.02%{transform:translateY(-8670px)}10.352%{transform:translateY(-9248px)}10.719%{transform:translateY(-9826px)}11.142%{transform:translateY(-10404px)}11.823%{transform:translateY(-10982px)}12.117%{transform:translateY(-11560px)}12.623%{transform:translateY(-12138px)}13.095%{transform:translateY(-12716px)}14.087%{transform:translateY(-13294px)}17.434%{transform:translateY(-13872px)}17.445%{transform:translateY(-14450px)}17.588%{transform:translateY(-15028px)}93.596%{transform:translateY(-15606px)}93.61%{transform:translateY(-16184px)}96.506%{transform:translateY(-16762px)}}#screen{font-family:&apos;DejaVu Sans Mono&apos;,monospace;font-style:normal;font-size:14px}text{dominant-baseline:text-before-edge;white-space:pre}:root{--animation-duration:28622ms}#screen_view{animation-duration:28622ms;animation-iteration-count:infinite;animation-name:roll;animation-timing-function:steps(1,end);animation-fill-mode:forwards}</style><style id="user-style" type="text/css">.foreground{fill:#ccc}.background{fill:#0c0c0c}.color2{fill:#13a10e}.color4{fill:#0037da}.color6{fill:#3a96dd}.color10{fill:#16c60c}.color14{fill:#61d6d6}.color15{fill:#f2f2f2}</style></defs><svg id="screen" width="1016" height="561" preserveAspectRatio="xMidYMin slice" viewBox="0 0 1016 561"><rect width="100%" height="100%" x="0" y="0" class="background"/><defs><g id="g2"><text x="0" class="foreground" textLength="144">nikhil@purpleterm</text><text x="144" class="color10" font-weight="bold" textLength="216">~/Projects/kindle-send/dist</text></g><g id="g3"><text x="0" class="color15" font-weight="bold" textLength="24">%</text></g><g id="g4"><text x="0" class="color15" font-weight="bold" textLength="24">%</text><text x="24" class="foreground" textLength="8">k</text></g><g id="g5"><text x="0" class="color15" font-weight="bold" textLength="24">%</text><text x="24" class="foreground" textLength="16">ki</text></g><g id="g6"><text x="0" class="color15" font-weight="bold" textLength="24">%</text><text x="24" class="foreground" textLength="24">kin</text></g><g id="g7"><text x="0" class="color15" font-weight="bold" textLength="24">%</text><text x="24" class="foreground" textLength="32">kind</text></g><g id="g8"><text x="0" class="color15" font-weight="bold" textLength="24">%</text><text x="24" class="foreground" textLength="40">kindl</text></g><g id="g9"><text x="0" class="color15" font-weight="bold" textLength="24">%</text><text x="24" class="foreground" textLength="48">kindle</text></g><g id="g10"><text x="0" class="color15" font-weight="bold" textLength="24">%</text><text x="24" class="foreground" textLength="56">kindle-</text></g><g id="g11"><text x="0" class="color15" font-weight="bold" textLength="24">%</text><text x="24" class="foreground" textLength="64">kindle-s</text></g><g id="g12"><text x="0" class="color15" font-weight="bold" textLength="24">%</text><text x="24" class="foreground" textLength="72">kindle-se</text></g><g id="g13"><text x="0" class="color15" font-weight="bold" textLength="24">%</text><text x="24" class="foreground" textLength="80">kindle-sen</text></g><g id="g14"><text x="0" class="color15" font-weight="bold" textLength="24">%</text><text x="24" class="foreground" textLength="88">kindle-send</text></g><g id="g15"><text x="0" class="color15" font-weight="bold" textLength="24">%</text><text x="24" class="foreground" textLength="96">kindle-send</text></g><g id="g16"><text x="0" class="color15" font-weight="bold" textLength="24">%</text><text x="24" class="foreground" textLength="104">kindle-send s</text></g><g id="g17"><text x="0" class="color15" font-weight="bold" textLength="24">%</text><text x="24" class="foreground" textLength="112">kindle-send se</text></g><g id="g18"><text x="0" class="color15" font-weight="bold" textLength="24">%</text><text x="24" class="foreground" textLength="120">kindle-send sen</text></g><g id="g19"><text x="0" class="color15" font-weight="bold" textLength="24">%</text><text x="24" class="foreground" textLength="128">kindle-send send</text></g><g id="g20"><text x="0" class="color15" font-weight="bold" textLength="24">%</text><text x="24" class="foreground" textLength="136">kindle-send send</text></g><g id="g21"><text x="0" class="color15" font-weight="bold" textLength="24">%</text><text x="24" class="foreground" textLength="144">kindle-send send j</text></g><g id="g22"><text x="0" class="color15" font-weight="bold" textLength="24">%</text><text x="24" class="foreground" textLength="152">kindle-send send ja</text></g><g id="g23"><text x="0" class="color15" font-weight="bold" textLength="24">%</text><text x="24" class="foreground" textLength="160">kindle-send send jan</text></g><g id="g24"><text x="0" class="color15" font-weight="bold" textLength="24">%</text><text x="24" class="foreground" textLength="168">kindle-send send jane</text></g><g id="g25"><text x="0" class="color15" font-weight="bold" textLength="24">%</text><text x="24" class="foreground" textLength="360">kindle-send send jane-eyre-autobiography.epub</text></g><g id="g26"><text x="0" class="color15" font-weight="bold" textLength="24">%</text><text x="24" class="foreground" textLength="360">kindle-send send jane-eyre-autobiography.epub</text></g><g id="g27"><text x="0" class="color15" font-weight="bold" textLength="24">%</text><text x="24" class="foreground" textLength="992">kindle-send send jane-eyre-autobiography.epub</text></g><g id="g28"><text x="0" class="color2" textLength="160">Loaded configuration</text></g><g id="g29"><text x="0" class="color14" font-weight="bold" textLength="96">Sending mail</text></g><g id="g30"><text x="0" class="color6" textLength="160">Mail timeout : 2m0s</text></g><g id="g31"><text x="0" class="color6" textLength="240">Following files will be sent :</text></g><g id="g32"><text x="0" class="color6" textLength="248">1. jane-eyre-autobiography.epub</text></g><g id="g33"><text x="0" class="color10" font-weight="bold" textLength="352">Mailed 1 files to purple_terminal@kindle.com</text></g><g id="g34"><text x="0" class="color10" font-weight="bold" textLength="352">Mailed 1 files to purple_terminal@kindle.com</text><text x="352" class="background" font-weight="bold" textLength="8">%</text></g><g id="g35"><text x="0" class="color15" font-weight="bold" textLength="24">%</text></g></defs><g id="screen_view"><g><rect width="8" height="17" x="0" y="0" class="foreground"/><use y="0" xlink:href="#g1"/></g><g><rect width="136" height="17" x="0" y="578" class="color4"/><use y="578" xlink:href="#g2"/><rect width="8" height="17" x="24" y="595" class="foreground"/><use y="595" xlink:href="#g3"/></g><g><rect width="136" height="17" x="0" y="1156" class="color4"/><use y="1156" xlink:href="#g2"/><rect width="8" height="17" x="32" y="1173" class="foreground"/><use y="1173" xlink:href="#g4"/></g><g><rect width="136" height="17" x="0" y="1734" class="color4"/><use y="1734" xlink:href="#g2"/><rect width="8" height="17" x="40" y="1751" class="foreground"/><use y="1751" xlink:href="#g5"/></g><g><rect width="136" height="17" x="0" y="2312" class="color4"/><use y="2312" xlink:href="#g2"/><rect width="8" height="17" x="48" y="2329" class="foreground"/><use y="2329" xlink:href="#g6"/></g><g><rect width="136" height="17" x="0" y="2890" class="color4"/><use y="2890" xlink:href="#g2"/><rect width="8" height="17" x="56" y="2907" class="foreground"/><use y="2907" xlink:href="#g7"/></g><g><rect width="136" height="17" x="0" y="3468" class="color4"/><use y="3468" xlink:href="#g2"/><rect width="8" height="17" x="64" y="3485" class="foreground"/><use y="3485" xlink:href="#g8"/></g><g><rect width="136" height="17" x="0" y="4046" class="color4"/><use y="4046" xlink:href="#g2"/><rect width="8" height="17" x="72" y="4063" class="foreground"/><use y="4063" xlink:href="#g9"/></g><g><rect width="136" height="17" x="0" y="4624" class="color4"/><use y="4624" xlink:href="#g2"/><rect width="8" height="17" x="80" y="4641" class="foreground"/><use y="4641" xlink:href="#g10"/></g><g><rect width="136" height="17" x="0" y="5202" class="color4"/><use y="5202" xlink:href="#g2"/><rect width="8" height="17" x="88" y="5219" class="foreground"/><use y="5219" xlink:href="#g11"/></g><g><rect width="136" height="17" x="0" y="5780" class="color4"/><use y="5780" xlink:href="#g2"/><rect width="8" height="17" x="96" y="5797" class="foreground"/><use y="5797" xlink:href="#g12"/></g><g><rect width="136" height="17" x="0" y="6358" class="color4"/><use y="6358" xlink:href="#g2"/><rect width="8" height="17" x="104" y="6375" class="foreground"/><use y="6375" xlink:href="#g13"/></g><g><rect width="136" height="17" x="0" y="6936" class="color4"/><use y="6936" xlink:href="#g2"/><rect width="8" height="17" x="112" y="6953" class="foreground"/><use y="6953" xlink:href="#g14"/></g><g><rect width="136" height="17" x="0" y="7514" class="color4"/><use y="7514" xlink:href="#g2"/><rect width="8" height="17" x="120" y="7531" class="foreground"/><use y="7531" xlink:href="#g15"/></g><g><rect width="136" height="17" x="0" y="8092" class="color4"/><use y="8092" xlink:href="#g2"/><rect width="8" height="17" x="128" y="8109" class="foreground"/><use y="8109" xlink:href="#g16"/></g><g><rect width="136" height="17" x="0" y="8670" class="color4"/><use y="8670" xlink:href="#g2"/><rect width="8" height="17" x="136" y="8687" class="foreground"/><use y="8687" xlink:href="#g17"/></g><g><rect width="136" height="17" x="0" y="9248" class="color4"/><use y="9248" xlink:href="#g2"/><rect width="8" height="17" x="144" y="9265" class="foreground"/><use y="9265" xlink:href="#g18"/></g><g><rect width="136" height="17" x="0" y="9826" class="color4"/><use y="9826" xlink:href="#g2"/><rect width="8" height="17" x="152" y="9843" class="foreground"/><use y="9843" xlink:href="#g19"/></g><g><rect width="136" height="17" x="0" y="10404" class="color4"/><use y="10404" xlink:href="#g2"/><rect width="8" height="17" x="160" y="10421" class="foreground"/><use y="10421" xlink:href="#g20"/></g><g><rect width="136" height="17" x="0" y="10982" class="color4"/><use y="10982" xlink:href="#g2"/><rect width="8" height="17" x="168" y="10999" class="foreground"/><use y="10999" xlink:href="#g21"/></g><g><rect width="136" height="17" x="0" y="11560" class="color4"/><use y="11560" xlink:href="#g2"/><rect width="8" height="17" x="176" y="11577" class="foreground"/><use y="11577" xlink:href="#g22"/></g><g><rect width="136" height="17" x="0" y="12138" class="color4"/><use y="12138" xlink:href="#g2"/><rect width="8" height="17" x="184" y="12155" class="foreground"/><use y="12155" xlink:href="#g23"/></g><g><rect width="136" height="17" x="0" y="12716" class="color4"/><use y="12716" xlink:href="#g2"/><rect width="8" height="17" x="192" y="12733" class="foreground"/><use y="12733" xlink:href="#g24"/></g><g><rect width="136" height="17" x="0" y="13294" class="color4"/><use y="13294" xlink:href="#g2"/><rect width="8" height="17" x="392" y="13311" class="foreground"/><use y="13311" xlink:href="#g25"/></g><g><rect width="136" height="17" x="0" y="13872" class="color4"/><use y="13872" xlink:href="#g2"/><rect width="8" height="17" x="384" y="13889" class="foreground"/><use y="13889" xlink:href="#g26"/></g><g><rect width="136" height="17" x="0" y="14450" class="color4"/><use y="14450" xlink:href="#g2"/><use y="14467" xlink:href="#g27"/><rect width="8" height="17" x="0" y="14484" class="foreground"/><use y="14484" xlink:href="#g1"/></g><g><rect width="136" height="17" x="0" y="15028" class="color4"/><use y="15028" xlink:href="#g2"/><use y="15045" xlink:href="#g27"/><use y="15062" xlink:href="#g28"/><use y="15079" xlink:href="#g29"/><use y="15096" xlink:href="#g30"/><use y="15113" xlink:href="#g31"/><use y="15130" xlink:href="#g32"/><rect width="8" height="17" x="0" y="15147" class="foreground"/><use y="15147" xlink:href="#g1"/></g><g><rect width="136" height="17" x="0" y="15606" class="color4"/><use y="15606" xlink:href="#g2"/><use y="15623" xlink:href="#g27"/><use y="15640" xlink:href="#g28"/><use y="15657" xlink:href="#g29"/><use y="15674" xlink:href="#g30"/><use y="15691" xlink:href="#g31"/><use y="15708" xlink:href="#g32"/><rect width="8" height="17" x="352" y="15725" class="foreground"/><use y="15725" xlink:href="#g33"/></g><g><rect width="136" height="17" x="0" y="16184" class="color4"/><use y="16184" xlink:href="#g2"/><use y="16201" xlink:href="#g27"/><use y="16218" xlink:href="#g28"/><use y="16235" xlink:href="#g29"/><use y="16252" xlink:href="#g30"/><use y="16269" xlink:href="#g31"/><use y="16286" xlink:href="#g32"/><rect width="8" height="17" x="352" y="16303" class="foreground"/><use y="16303" xlink:href="#g34"/><rect width="136" height="17" x="0" y="16320" class="color4"/><use y="16320" xlink:href="#g2"/><rect width="8" height="17" x="24" y="16337" class="foreground"/><use y="16337" xlink:href="#g3"/></g><g><rect width="136" height="17" x="0" y="16762" class="color4"/><use y="16762" xlink:href="#g2"/><use y="16779" xlink:href="#g27"/><use y="16796" xlink:href="#g28"/><use y="16813" xlink:href="#g29"/><use y="16830" xlink:href="#g30"/><use y="16847" xlink:href="#g31"/><use y="16864" xlink:href="#g32"/><rect width="8" height="17" x="352" y="16881" class="foreground"/><use y="16881" xlink:href="#g34"/><rect width="136" height="17" x="0" y="16898" class="color4"/><use y="16898" xlink:href="#g2"/><use y="16915" xlink:href="#g35"/><rect width="8" height="17" x="0" y="16932" class="foreground"/><use y="16932" xlink:href="#g1"/></g></g></svg></svg>